<?xml version="1.0" encoding="UTF-8"?>
<svg version="1.1" xmlns="http://www.w3.org/2000/svg" width="900" height="900">
<path d="M0 0 C0 0.66 0 1.32 0 2 C1.1446875 1.6596875 1.1446875 1.6596875 2.3125 1.3125 C3.199375 1.209375 4.08625 1.10625 5 1 C6.625 2.375 6.625 2.375 8 4 C8.99 4.33 9.98 4.66 11 5 C11 5.66 11 6.32 11 7 C11.86625 7.433125 11.86625 7.433125 12.75 7.875 C13.4925 8.24625 14.235 8.6175 15 9 C15.680625 9.309375 16.36125 9.61875 17.0625 9.9375 C19 11 19 11 20.375 12.4375 C22.07190976 14.24033937 22.07190976 14.24033937 25.125 15.4375 C28 17 28 17 28.625 19.0625 C28.74875 19.701875 28.8725 20.34125 29 21 C30.3215912 21.6896513 31.65731278 22.35237878 33 23 C34.28187437 23.95880034 35.5331293 24.95993957 36.75 26 C37.36359375 26.515625 37.9771875 27.03125 38.609375 27.5625 C40 29 40 29 40 31 C40.99 31 41.98 31 43 31 C43 31.99 43 32.98 43 34 C43.66 34 44.32 34 45 34 C45 34.99 45 35.98 45 37 C45.99 37.33 46.98 37.66 48 38 C50.6875 40.4375 50.6875 40.4375 53 43 C53 43.66 53 44.32 53 45 C53.99 45.33 54.98 45.66 56 46 C56.66666667 48 57.33333333 50 58 52 C58.99 52.33 59.98 52.66 61 53 C61 54.98 61 56.96 61 59 C61.61875 59.061875 62.2375 59.12375 62.875 59.1875 C65 60 65 60 66.125 61.9375 C67.14898472 65.52144653 67.72232432 69.10415237 68.2421875 72.79296875 C68.78853623 75.17685046 68.78853623 75.17685046 71.03515625 76.15625 C71.68355469 76.4346875 72.33195312 76.713125 73 77 C73.5625 79.3125 73.5625 79.3125 74 82 C74.474375 82.721875 74.94875 83.44375 75.4375 84.1875 C77.3365878 87.60585803 77.89846581 90.77284486 78.5703125 94.59765625 C79.45477211 99.54258952 81.11882768 103.84147614 83.0625 108.46484375 C84.41177147 112.11349868 85.18570585 114.95540459 84.5 118.8125 C84.0567381 121.63829459 84.0900849 123.36319702 84.5 126.125 C84.9148012 129.33970927 85.10600956 131.05064117 84 134 C84.66 134 85.32 134 86 134 C86.02496472 138.10765642 86.04298366 142.21528264 86.05493164 146.32299805 C86.05991957 147.71656057 86.06671231 149.11011798 86.07543945 150.50366211 C86.12164125 158.07803966 85.98348632 165.48058883 85 173 C84.97914604 174.41651317 84.97714801 175.83351766 85 177.25 C85.07263434 183.19563946 84.51185855 189.08118493 84 195 C83.93941406 195.90363281 83.87882812 196.80726563 83.81640625 197.73828125 C83.43233447 202.77824364 82.41751451 206.99329768 80.68359375 211.73046875 C79.95726774 214.14187109 79.7266013 216.30295085 79.5625 218.8125 C79.18676512 223.79673818 77.72206238 228.01745595 76.046875 232.703125 C74.48829308 237.61149492 73.61618799 242.58826601 72.7109375 247.65234375 C72.07622283 250.64108263 71.23626851 253.21575425 70 256 C69.34 256 68.68 256 68 256 C68.33 256.99 68.66 257.98 69 259 C67.40014052 272.47128052 67.40014052 272.47128052 63.46875 276.61328125 C61.26070131 280.20136037 61.508095 283.67428831 61.4375 287.8125 C61.25131833 296.17688375 61.25131833 296.17688375 59.9921875 300.30078125 C58.5551623 305.65850906 58.66033577 310.8514743 58.6875 316.375 C58.69168945 317.52444092 58.69587891 318.67388184 58.70019531 319.8581543 C58.69776489 337.07771536 58.69776489 337.07771536 66 352 C66.38749213 354.32495277 66.72982839 356.65851268 67 359 C67.66 359.33 68.32 359.66 69 360 C70.99846485 364.2467378 72.57620579 368.52521819 74 373 C74.33 373.99 74.66 374.98 75 376 C75.66 376 76.32 376 77 376 C77.0928125 377.175625 77.0928125 377.175625 77.1875 378.375 C77.455625 379.24125 77.72375 380.1075 78 381 C79.65438613 381.69658363 81.32254318 382.36096883 83 383 C84.5625 385.375 84.5625 385.375 86 388 C88.04337677 390.31582701 89.84789316 391.90873589 92.5 393.5 C95.1029276 395.06175656 96.89903653 396.82781743 99 399 C98.98952637 398.29617188 98.97905273 397.59234375 98.96826172 396.8671875 C98.79486488 383.41686075 98.75128228 370.29152793 101 357 C101.66 357 102.32 357 103 357 C102.814375 356.195625 102.62875 355.39125 102.4375 354.5625 C101.83731966 349.67531721 101.4865566 344.20137223 104.375 340 C104.91125 339.34 105.4475 338.68 106 338 C106.80901771 335.72724406 107.49873051 333.441981 108.15625 331.12109375 C109.09190807 328.76895333 110.15643509 327.69777278 112 326 C114.11133621 323.13770532 114.11133621 323.13770532 114.9375 320 C115.97148947 317.08050032 116.54078974 315.79711519 119 314 C119.70125 313.835 120.4025 313.67 121.125 313.5 C121.74375 313.335 122.3625 313.17 123 313 C123.33 312.01 123.66 311.02 124 310 C124.66 310 125.32 310 126 310 C126.33 309.34 126.66 308.68 127 308 C127.66 308 128.32 308 129 308 C129.12375 307.236875 129.2475 306.47375 129.375 305.6875 C131.68527438 301.86666161 134.34342464 301.68345734 138.53515625 300.625 C141.0948428 300.04530597 141.0948428 300.04530597 143.75 298.8125 C146.64158925 297.76831499 148.94857232 297.73465846 152 298 C152.99 298.66 153.98 299.32 155 300 C154.04820685 304.3741983 153.08196092 308.73420045 151.9375 313.0625 C150.05561724 320.6796445 150.02742374 327.06857738 150.94140625 334.8515625 C151 338 151 338 149.9453125 341.125 C148.88577052 344.34740865 149.02540084 345.32451829 150.3125 348.375 C151.48008174 351.39548319 152.20283793 353.95780893 152.4375 357.1875 C153.07404836 361.50188335 154.52454579 363.47435309 157 367 C157.69730806 369.3243602 158.36912152 371.65673706 159 374 C159.66 374.66 160.32 375.32 161 376 C161 376.99 161 377.98 161 379 C161.6084375 379.05542969 162.216875 379.11085938 162.84375 379.16796875 C165 380 165 380 166.34375 382.36328125 C166.7253125 383.33652344 167.106875 384.30976563 167.5 385.3125 C169.14217072 389.46785767 170.78724037 391.91656756 174 395 C174 395.66 174 396.32 174 397 C174.7425 397.28875 175.485 397.5775 176.25 397.875 C177.1575 398.24625 178.065 398.6175 179 399 C179.721875 399.28875 180.44375 399.5775 181.1875 399.875 C183 401 183 401 183.875 403.0625 C184.24625 403.701875 184.6175 404.34125 185 405 C188.05908413 405.81584568 188.05908413 405.81584568 191 406 C191 406.66 191 407.32 191 408 C191.7734375 408.3403125 191.7734375 408.3403125 192.5625 408.6875 C194.73838307 409.85912935 196.43939746 411.10999402 198.375 412.625 C201.64750123 415.03520069 203.88305923 415.50206595 208 415 C208.33 415.66 208.66 416.32 209 417 C211.02463255 417.65213292 211.02463255 417.65213292 213 418 C213 418.66 213 419.32 213 420 C213.99 420.33 214.98 420.66 216 421 C216.66 421.99 217.32 422.98 218 424 C220.69876935 425.31502886 220.69876935 425.31502886 223.8125 426.4375 C228.19349816 428.08649682 231.55501145 429.7900376 235 433 C235.33 433.99 235.66 434.98 236 436 C236.86625 436.391875 237.7325 436.78375 238.625 437.1875 C242.47410208 439.25461038 244.44416279 441.55667676 247.203125 444.87109375 C250.58893804 448.88254615 254.2207005 452.67693114 258.4375 455.8125 C258.953125 456.204375 259.46875 456.59625 260 457 C260 457.66 260 458.32 260 459 C260.59941406 459.22042969 261.19882812 459.44085937 261.81640625 459.66796875 C264.70568651 461.43048139 265.46131481 463.29061396 266.9375 466.3125 C268.52451799 469.55284593 269.85333993 471.85475465 272.4296875 474.40625 C275.41067348 477.41441822 277.20240353 480.48430835 279.1875 484.1875 C281.66713352 488.8922482 281.66713352 488.8922482 285 493 C285.29862047 495.04768324 285.37735186 497.0581551 285.4609375 499.125 C285.63882813 499.74375 285.81671875 500.3625 286 501 C287.32523792 501.68261752 288.65912098 502.34864321 290 503 C290.94140625 504.8125 290.94140625 504.8125 291.5625 507 C291.7996875 507.79921875 292.036875 508.5984375 292.28125 509.421875 C292.5184375 510.27265625 292.755625 511.1234375 293 512 C293.51800021 513.7508407 294.03880377 515.5008546 294.5625 517.25 C294.81 518.09046875 295.0575 518.9309375 295.3125 519.796875 C295.98441276 522.07817593 295.98441276 522.07817593 297.0625 524.5 C298.29942612 527.79846965 298.89054082 531.14017348 299.53515625 534.59765625 C299.94404424 536.90439592 299.94404424 536.90439592 300.50268555 538.73876953 C301.72427736 544.2932042 301.55091499 550.14252678 301.75 555.8125 C301.77568054 556.52641907 301.80136108 557.24033813 301.82781982 557.97589111 C302.22799032 570.07215406 301.38684415 581.60295073 299.37988281 593.55371094 C298.47884631 599.35601544 297.93375412 605.12749766 298 611 C297.01 611.33 296.02 611.66 295 612 C294.896875 613.155 294.79375 614.31 294.6875 615.5 C294.1183493 620.00577635 292.72378647 623.82342484 291 628 C290.67644531 628.85335937 290.35289062 629.70671875 290.01953125 630.5859375 C289.51486328 631.90464844 289.51486328 631.90464844 289 633.25 C288.690625 634.05953125 288.38125 634.8690625 288.0625 635.703125 C287 638 287 638 285.52734375 639.87109375 C283.51133491 642.68113165 282.64588262 645.53393554 281.5625 648.8125 C277.00220403 661.99889798 277.00220403 661.99889798 273 664 C272.34786708 666.02463255 272.34786708 666.02463255 272 668 C271.34 668 270.68 668 270 668 C270 668.66 270 669.32 270 670 C268.3563186 671.68933922 266.6857124 673.35259924 265 675 C262.81444271 677.58293135 260.89921251 680.15605804 259.0625 683 C256.96555588 686.05010054 254.64519674 688.4244137 252 691 C251.34 691.99 250.68 692.98 250 694 C249.34 694 248.68 694 248 694 C247.773125 694.556875 247.54625 695.11375 247.3125 695.6875 C245.6296426 698.65253447 243.46378626 700.65353689 241 703 C239.9171875 704.1446875 239.9171875 704.1446875 238.8125 705.3125 C237 707 237 707 235 707 C234.2575 707.99 233.515 708.98 232.75 710 C229.19706534 714.37010963 224.76005076 716.67146439 219.85058594 719.24609375 C216.65434574 720.9419873 215.0516344 721.9225484 213 725 C211.0546875 725.51171875 211.0546875 725.51171875 208.875 725.6875 C206.956875 725.8421875 206.956875 725.8421875 205 726 C205 726.66 205 727.32 205 728 C203.0625 729.3125 203.0625 729.3125 200 731 C199.26394531 731.43054688 198.52789063 731.86109375 197.76953125 732.3046875 C196.97933594 732.76101563 196.18914062 733.21734375 195.375 733.6875 C194.61960937 734.12449219 193.86421875 734.56148437 193.0859375 735.01171875 C191 736 191 736 188 736 C187.67 736.99 187.34 737.98 187 739 C186.0409375 739.12375 186.0409375 739.12375 185.0625 739.25 C179.54776198 740.60054809 174.2148401 742.17773984 171 747 C167.875 747.1875 167.875 747.1875 165 747 C164.67 747.66 164.34 748.32 164 749 C160.7 749 157.4 749 154 749 C154.53804498 743.72715915 155.49786684 739.63357992 158 735 C159.875 734.375 159.875 734.375 162 734 C166.33972843 730.2744945 166.33972843 730.2744945 168 725 C168.63035156 724.92007813 169.26070312 724.84015625 169.91015625 724.7578125 C172.1562576 724.21954916 172.1562576 724.21954916 172.87109375 722.1796875 C173.05800781 721.41914062 173.24492188 720.65859375 173.4375 719.875 C174.38629724 716.58272542 175.36061206 714.23833148 177.5 711.5625 C180.67317932 707.45547211 181.73103951 702.96410959 183 698 C183.37112296 696.70721405 183.74563592 695.41539168 184.125 694.125 C184.59616604 692.44226416 185.05736664 690.75582404 185.45703125 689.0546875 C186 687 186 687 186.75390625 685.125 C190.18793496 676.10030619 189.30997807 666.482761 189 657 C188.97921387 656.22624023 188.95842773 655.45248047 188.93701172 654.65527344 C188.70770183 646.91309215 188.16130649 640.14730163 185 633 C185 631.68 185 630.36 185 629 C184.34 629 183.68 629 183 629 C182.81824219 627.95199219 182.63648438 626.90398438 182.44921875 625.82421875 C182.19592942 624.44519905 181.94198904 623.06629881 181.6875 621.6875 C181.56955078 620.99720703 181.45160156 620.30691406 181.33007812 619.59570312 C180.59750017 615.70740477 179.94361938 613.60116861 177 611 C175.42735355 607.98051881 174.01914313 604.90565544 172.59765625 601.8125 C170.96537184 598.93904089 169.5814101 597.92926439 167 596 C166.1960452 593.30469001 166.18580498 590.83352598 166 588 C165.34 588 164.68 588 164 588 C163.7525 587.38125 163.505 586.7625 163.25 586.125 C162.2076261 583.84987304 162.2076261 583.84987304 160.0625 583.25 C157.11399567 581.46302768 156.89742438 579.21077724 155.85546875 576.02734375 C154.58916186 573.02636989 152.33629908 571.21333597 150 569 C149.1875 566.6875 149.1875 566.6875 149 565 C148.34 565 147.68 565 147 565 C143.00891563 561.46503956 139.92964197 557.36596128 136.6953125 553.14453125 C133.86417423 549.56320657 130.78452667 546.61018741 127.1875 543.8125 C126.465625 543.214375 125.74375 542.61625 125 542 C125 541.34 125 540.68 125 540 C124.40960938 539.72542969 123.81921875 539.45085938 123.2109375 539.16796875 C118.35498731 536.60272298 114.50494623 532.73036307 111.0625 528.5 C108.3818397 525.25611586 105.43043544 522.91385087 102.015625 520.4765625 C100.01617452 519.01184878 98.17008655 517.45202204 96.3125 515.8125 C93.68799646 513.52126675 91.02084824 511.74891214 88 510 C85.22531232 507.91898424 82.83452702 505.82645516 80.4375 503.3125 C78.30966634 500.89995021 78.30966634 500.89995021 76.09375 500.56640625 C73.39372477 499.83598898 72.09216957 498.53007599 70.0625 496.625 C67.17322954 493.99255358 64.36091213 491.99838019 61 490 C59.31384218 488.35305515 57.64429829 486.68873879 56 485 C55.34 484.67 54.68 484.34 54 484 C54 483.34 54 482.68 54 482 C53.071875 481.71125 52.14375 481.4225 51.1875 481.125 C48 480 48 480 45 478 C45 477.34 45 476.68 45 476 C44.05125 475.7525 43.1025 475.505 42.125 475.25 C39 474 39 474 37.8125 471.9375 C37.544375 471.298125 37.27625 470.65875 37 470 C36.01 469.67 35.02 469.34 34 469 C32.29006566 467.3777546 30.62652316 465.70586575 29 464 C28.29875 463.29875 27.5975 462.5975 26.875 461.875 C26.25625 461.25625 25.6375 460.6375 25 460 C24.195625 459.2265625 24.195625 459.2265625 23.375 458.4375 C22 457 22 457 20 454 C19.01 453.67 18.02 453.34 17 453 C15.39453125 451.44140625 15.39453125 451.44140625 13.8125 449.5625 C13.01779297 448.63630859 13.01779297 448.63630859 12.20703125 447.69140625 C11 446 11 446 11 444 C10.38125 443.7525 9.7625 443.505 9.125 443.25 C6.57496075 441.74997691 6.23777652 440.6302751 5 438 C4.29875 437.29875 3.5975 436.5975 2.875 435.875 C2.25625 435.25625 1.6375 434.6375 1 434 C1 433.34 1 432.68 1 432 C0.41347656 431.75121094 -0.17304688 431.50242187 -0.77734375 431.24609375 C-3.31056333 429.82588804 -4.70985353 428.28816254 -6.5625 426.0625 C-8.98653572 423.16070364 -8.98653572 423.16070364 -11.640625 420.4765625 C-13.85795343 418.06808507 -14.23587527 415.11527776 -15 412 C-15.99 412 -16.98 412 -18 412 C-18.25394531 411.44570313 -18.50789063 410.89140625 -18.76953125 410.3203125 C-19.11371094 409.59585937 -19.45789063 408.87140625 -19.8125 408.125 C-20.14894531 407.40570313 -20.48539062 406.68640625 -20.83203125 405.9453125 C-21.99467097 403.69457194 -21.99467097 403.69457194 -25 402 C-25.87890625 400.1953125 -25.87890625 400.1953125 -26.5625 398.125 C-28.4754603 392.59169908 -28.4754603 392.59169908 -32 388 C-33.05440746 385.18824678 -33.9050995 382.35156323 -34.6875 379.453125 C-34.935 378.56109375 -35.1825 377.6690625 -35.4375 376.75 C-35.77587891 375.47382812 -35.77587891 375.47382812 -36.12109375 374.171875 C-36.90051005 371.65956553 -36.90051005 371.65956553 -40 370 C-41.67676062 365.43548499 -42.28319912 361.15020905 -42.55859375 356.30859375 C-42.90874126 353.85016504 -42.90874126 353.85016504 -44.43359375 351.33984375 C-46.47459082 346.98809188 -47.0175074 342.86241047 -47.625 338.125 C-47.74979736 337.2069458 -47.87459473 336.2888916 -48.00317383 335.34301758 C-49.06141473 327.24434981 -49.66531545 319.15937843 -50 311 C-53.15186027 311.74581095 -53.15186027 311.74581095 -54.875 314.375 C-57.08716397 317.10767314 -58.95058721 318.32282296 -62 320 C-63.34275169 320.98731742 -64.67732273 321.98594743 -66 323 C-69 325 -69 325 -72 325 C-72 325.66 -72 326.32 -72 327 C-74.10750087 329.5127895 -75.8000679 330.91114129 -78.8125 332.25 C-82.65297824 334.35849786 -84.71096927 336.94158148 -87.38671875 340.35546875 C-87.91910156 340.89816406 -88.45148438 341.44085938 -89 342 C-89.99 342 -90.98 342 -92 342 C-92.1546875 343.11375 -92.1546875 343.11375 -92.3125 344.25 C-93.07121868 347.28487472 -93.87599014 348.72427515 -96 351 C-96.804375 351.45375 -97.60875 351.9075 -98.4375 352.375 C-101.67417427 354.42752515 -102.99192008 356.76116141 -105 360 C-107.0625 362.875 -107.0625 362.875 -109 365 C-109.99 365 -110.98 365 -112 365 C-112.2475 365.9075 -112.495 366.815 -112.75 367.75 C-114.07959904 371.2069575 -115.43203353 372.43203353 -118 375 C-119.05352843 377.30965848 -120.05719096 379.6429774 -121 382 C-121.66 382.99 -122.32 383.98 -123 385 C-123.66 385 -124.32 385 -125 385 C-124.67 387.31 -124.34 389.62 -124 392 C-124.99 392.33 -125.98 392.66 -127 393 C-127.33 393.99 -127.66 394.98 -128 396 C-128.66 396.33 -129.32 396.66 -130 397 C-130.70491267 399.32206525 -131.37212429 401.65593068 -132 404 C-132.33 404.33 -132.66 404.66 -133 405 C-133.49967986 407.11682557 -133.89808614 409.24630716 -134.3046875 411.3828125 C-135 414 -135 414 -136.49609375 417.39453125 C-140.74078232 427.57075865 -140.2104188 439.52194306 -140.29653931 450.36935425 C-140.31217597 452.33428224 -140.33895366 454.2991115 -140.3659668 456.26391602 C-140.36064608 463.71243261 -139.66176639 470.03281832 -137 477 C-136.72510742 477.75055664 -136.45021484 478.50111328 -136.16699219 479.27441406 C-135.45998117 481.18911727 -134.73213341 483.09478921 -134 485 C-132.06625072 490.23249804 -131.01612305 495.53023123 -130 501 C-129.01 501 -128.02 501 -127 501 C-124.18467181 506.04140164 -122.4811491 510.22621075 -122 516 C-121.34 516 -120.68 516 -120 516 C-118.43761577 518.2442597 -116.9840787 520.48147838 -115.5625 522.8125 C-114.77575827 524.09207832 -113.98549389 525.36949868 -113.19140625 526.64453125 C-112.84279541 527.21534424 -112.49418457 527.78615723 -112.13500977 528.37426758 C-111.02872624 530.08044414 -111.02872624 530.08044414 -109.36303711 531.5222168 C-108 533 -108 533 -108 536 C-107.01 536.33 -106.02 536.66 -105 537 C-103.96567096 538.98246398 -102.96761608 540.98413316 -102 543 C-101.1646875 543.8353125 -101.1646875 543.8353125 -100.3125 544.6875 C-99.879375 545.120625 -99.44625 545.55375 -99 546 C-99 546.99 -99 547.98 -99 549 C-97.68 549.66 -96.36 550.32 -95 551 C-95 551.66 -95 552.32 -95 553 C-94.443125 553.226875 -93.88625 553.45375 -93.3125 553.6875 C-90.3530491 555.36718835 -88.33873216 557.54133285 -86 560 C-85.401875 560.556875 -84.80375 561.11375 -84.1875 561.6875 C-83 563 -83 563 -83 565 C-82.13375 565.12761719 -82.13375 565.12761719 -81.25 565.2578125 C-78.36069157 566.21088299 -77.07202079 567.66538408 -75 569.875 C-73.00526763 571.98661122 -71.17486637 573.87447093 -68.8125 575.5703125 C-67 577 -67 577 -66 580 C-62.99992729 581.70855022 -62.99992729 581.70855022 -60 583 C-60 583.99 -60 584.98 -60 586 C-58.68 586.66 -57.36 587.32 -56 588 C-56 588.66 -56 589.32 -56 590 C-55.38125 590.2475 -54.7625 590.495 -54.125 590.75 C-52 592 -52 592 -51.0625 594 C-49.59325713 596.76563364 -47.87182388 596.86462777 -45 598 C-42.03232971 600.63043503 -40.26050352 602.21848945 -39 606 C-38.01 606.33 -37.02 606.66 -36 607 C-35.731875 607.598125 -35.46375 608.19625 -35.1875 608.8125 C-33.50609198 611.90983056 -30.9040564 613.08455855 -28 615 C-27.67 615.99 -27.34 616.98 -27 618 C-25.15028304 619.05021103 -25.15028304 619.05021103 -23 620 C-20.65170707 621.51948366 -19.25869714 622.44811276 -18.0625 625 C-17.09357341 627.24635028 -17.09357341 627.24635028 -14.4375 628.5 C-12 630 -12 630 -11.4375 632.0625 C-11.293125 632.701875 -11.14875 633.34125 -11 634 C-9.68596724 634.70394612 -8.3479743 635.36345658 -7 636 C-5.33333333 637.66666667 -3.66666667 639.33333333 -2 641 C-1.01 641.33 -0.02 641.66 1 642 C2.6484375 643.7421875 2.6484375 643.7421875 4.375 645.875 C7.84743149 649.9701249 10.8741961 652.2913987 16 654 C16 655.32 16 656.64 16 658 C16.99 658 17.98 658 19 658 C19.24234375 658.51949219 19.4846875 659.03898438 19.734375 659.57421875 C23.06687418 666.91288537 23.06687418 666.91288537 29 672 C29.2475 672.680625 29.495 673.36125 29.75 674.0625 C30.91849986 676.80847468 32.09855091 678.50586757 33.9375 680.8125 C37.32731945 685.18619388 39.34914277 689.55505868 40.38671875 695.046875 C40.86092531 697.09348069 40.86092531 697.09348069 42.4921875 698.46484375 C44.41453281 700.42205025 44.64031428 701.88791605 45.125 704.5625 C45.74131311 707.88705386 45.74131311 707.88705386 47 711 C51.18720153 734.62559694 51.18720153 734.62559694 48 741 C47.34 741 46.68 741 46 741 C46.0309375 742.7634375 46.0309375 742.7634375 46.0625 744.5625 C46.02483169 751.68181026 45.17337586 756.10817526 41 762 C40.42755758 763.21513915 39.8855155 764.44507197 39.375 765.6875 C38 769 38 769 36 772 C35.34 772 34.68 772 34 772 C33.67 772.99 33.34 773.98 33 775 C32.01 775.66 31.02 776.32 30 777 C30.66 777.66 31.32 778.32 32 779 C28.79884255 780.06705248 26.94395082 779.75509034 23.67578125 779.2890625 C17.48579106 778.62036283 11.22205462 778.65021657 5 778.5 C-18.0566474 777.9433526 -18.0566474 777.9433526 -21 775 C-23.51623188 774.42179066 -23.51623188 774.42179066 -26.4375 774.0625 C-33.73512095 772.94382278 -40.69419856 771.29200536 -47.578125 768.6015625 C-52.93115307 766.56546849 -58.45483537 765.21787652 -64 763.8125 C-65.06089844 763.53986328 -66.12179687 763.26722656 -67.21484375 762.98632812 C-69.80891612 762.32028252 -72.40394715 761.6582757 -75 761 C-75 760.01 -75 759.02 -75 758 C-75.86625 757.74089844 -76.7325 757.48179687 -77.625 757.21484375 C-81.05512723 755.98015675 -83.88591593 754.44798059 -87 752.5625 C-90.07107202 750.71105945 -93.08092037 748.96097119 -96.3125 747.40234375 C-99 746 -99 746 -100 744 C-102.02120024 742.92405935 -104.09289801 742.02152534 -106.1875 741.09765625 C-108 740 -108 740 -109 737 C-110.99054876 736.30562253 -112.99255385 735.64389782 -115 735 C-120.68270723 731.72151506 -120.68270723 731.72151506 -121.85546875 729.0546875 C-123.79885482 725.56587837 -127.34654383 724.37800842 -130.78515625 722.5625 C-133 721 -133 721 -133.70703125 718.87109375 C-133.85205078 717.94490234 -133.85205078 717.94490234 -134 717 C-135.71519747 715.97348627 -135.71519747 715.97348627 -138 715 C-139.24517082 714.1907752 -140.47338591 713.35511526 -141.6875 712.5 C-142.28949219 712.0771875 -142.89148438 711.654375 -143.51171875 711.21875 C-145 710 -145 710 -146 708 C-148.02463255 707.34786708 -148.02463255 707.34786708 -150 707 C-150.061875 706.443125 -150.12375 705.88625 -150.1875 705.3125 C-151.33874823 702.03587043 -153.48159664 700.33412994 -156 698 C-156.66 697.34 -157.32 696.68 -158 696 C-158 695.01 -158 694.02 -158 693 C-158.66 693 -159.32 693 -160 693 C-161.02323436 691.68441297 -162.01755155 690.34631825 -163 689 C-163.804375 688.21625 -164.60875 687.4325 -165.4375 686.625 C-168.05995642 683.93858123 -169.92373361 681.11439959 -172 678 C-172.99 677.34 -173.98 676.68 -175 676 C-175.309375 675.175 -175.61875 674.35 -175.9375 673.5 C-176.72922566 670.87018715 -176.72922566 670.87018715 -178.91015625 670.08984375 C-181.44971991 668.76547317 -182.13119157 667.54577745 -183.5 665.0625 C-185.35268509 661.88891905 -186.998848 660.14368 -190 658 C-190.34342449 656.66923011 -190.67619874 655.33568021 -191 654 C-192.31266518 652.64631404 -193.64567325 651.31200404 -195 650 C-195.495 648.515 -195.495 648.515 -196 647 C-197.0828125 646.38125 -197.0828125 646.38125 -198.1875 645.75 C-201.3627172 643.7743093 -203.23145779 641.57774229 -205.578125 638.7109375 C-207.08619804 636.84297853 -207.08619804 636.84297853 -209.3125 634.6875 C-211 633 -211 633 -212 631 C-214.52733235 630.34444881 -214.52733235 630.34444881 -217 630 C-217 629.34 -217 628.68 -217 628 C-217.66 628 -218.32 628 -219 628 C-219.495 626.515 -219.495 626.515 -220 625 C-221.62948064 623.77554716 -221.62948064 623.77554716 -223.5625 622.8125 C-224.696875 622.214375 -225.83125 621.61625 -227 621 C-227 620.34 -227 619.68 -227 619 C-227.94875 618.731875 -228.8975 618.46375 -229.875 618.1875 C-233 617 -233 617 -235 614 C-236.91807787 613.06984743 -236.91807787 613.06984743 -239.0625 612.4375 C-241.22265625 611.74609375 -241.22265625 611.74609375 -243 611 C-243.33 610.34 -243.66 609.68 -244 609 C-246.3140622 608.26924352 -248.64828869 607.59861742 -251 607 C-251 606.34 -251 605.68 -251 605 C-252.08667969 604.72736328 -252.08667969 604.72736328 -253.1953125 604.44921875 C-265.83783784 601.16216216 -265.83783784 601.16216216 -270 597 C-272.43206075 596.58108044 -274.80062616 596.25386984 -277.25 596 C-284.38573334 595.21027457 -284.38573334 595.21027457 -287.8984375 594.0078125 C-292.01957338 592.66870285 -296.07620546 592.29322403 -300.375 591.875 C-301.20644531 591.78863281 -302.03789062 591.70226562 -302.89453125 591.61328125 C-304.92907147 591.40281157 -306.9644597 591.20056686 -309 591 C-310.140625 586.328125 -310.140625 586.328125 -308.875 583.375 C-306.8224229 580.77506901 -304.87473712 579.58867051 -302 578 C-301.67 577.34 -301.34 576.68 -301 576 C-298.74042735 575.15542392 -296.450698 574.53109494 -294.12890625 573.87890625 C-291.6574796 573.09008134 -291.6574796 573.09008134 -290 570 C-287.375 569.3125 -287.375 569.3125 -285 569 C-285 568.34 -285 567.68 -285 567 C-281.17482487 564.60926555 -277.40334476 564.44033448 -273 564 C-273 563.34 -273 562.68 -273 562 C-272.071875 561.814375 -272.071875 561.814375 -271.125 561.625 C-268.80879168 561.12802644 -268.80879168 561.12802644 -267 559 C-265.046875 558.65625 -265.046875 558.65625 -262.75 558.5 C-258.89231731 558.14874135 -255.64968717 557.34879743 -252 556 C-240.86984509 552.21574733 -228.86266964 552.86338253 -217.25 552.9375 C-215.85937663 552.94253143 -214.46875148 552.9470914 -213.078125 552.95117188 C-209.71870295 552.96283653 -206.35937581 552.97920386 -203 553 C-203 553.66 -203 554.32 -203 555 C-201.9275 555.12375 -200.855 555.2475 -199.75 555.375 C-196.62136385 555.89643936 -194.66519576 556.40088254 -192 558 C-192.54012193 554.11112207 -193.64007333 552.07816522 -196 549 C-196 548.01 -196 547.02 -196 546 C-197.32 545.67 -198.64 545.34 -200 545 C-200.19335938 544.21753906 -200.38671875 543.43507813 -200.5859375 542.62890625 C-200.84632813 541.61699219 -201.10671875 540.60507812 -201.375 539.5625 C-201.63023437 538.55316406 -201.88546875 537.54382813 -202.1484375 536.50390625 C-202.72573954 533.84429676 -202.72573954 533.84429676 -205 533 C-205.72693904 531.02111039 -206.39816251 529.02045442 -207 527 C-207.66 527 -208.32 527 -209 527 C-208.95875 526.278125 -208.9175 525.55625 -208.875 524.8125 C-209.01096302 521.75333202 -209.81004784 519.79988743 -211 517 C-211.83886544 513.36491642 -212.40067129 509.68159067 -213 506 C-214.32 506 -215.64 506 -217 506 C-216.90460938 505.39414062 -216.80921875 504.78828125 -216.7109375 504.1640625 C-215.86402555 497.76298382 -216.16695431 492.21477821 -218 486 C-218.33 485.67 -218.66 485.34 -219 485 C-222.26049684 467.10296626 -221.66710167 448.54526883 -220.125 430.5 C-220.00753418 429.08424683 -220.00753418 429.08424683 -219.88769531 427.63989258 C-219.80358398 426.77904053 -219.71947266 425.91818848 -219.6328125 425.03125 C-219.55949707 424.27392578 -219.48618164 423.51660156 -219.41064453 422.73632812 C-219.20737549 421.8768457 -219.20737549 421.8768457 -219 421 C-218.34 420.67 -217.68 420.34 -217 420 C-216.37865356 417.16166642 -216.37865356 417.16166642 -216 413.8125 C-215.55809491 410.3601165 -215.08225535 407.2458242 -213.9765625 403.94140625 C-212.97591825 400.92746577 -212.60616063 398.28419533 -212.375 395.125 C-212.30023438 394.15820312 -212.22546875 393.19140625 -212.1484375 392.1953125 C-212.07496094 391.10863281 -212.07496094 391.10863281 -212 390 C-211.01 390 -210.02 390 -209 390 C-208.89429688 388.9790625 -208.78859375 387.958125 -208.6796875 386.90625 C-207.99422178 382.96679186 -206.87132611 380.07953411 -205.125 376.5 C-203.43167813 372.98403335 -201.75524971 369.50116237 -200.3125 365.875 C-199 363 -199 363 -197.4375 361.5 C-195.67536434 359.8949303 -195.67536434 359.8949303 -195 356.5 C-194 353 -194 353 -192.54296875 351.57421875 C-190.6261626 349.61859121 -190.10530601 347.91743403 -189.3125 345.3125 C-189.06113281 344.50425781 -188.80976563 343.69601562 -188.55078125 342.86328125 C-188.36902344 342.24839844 -188.18726563 341.63351562 -188 341 C-187.01 341 -186.02 341 -185 341 C-184.896875 340.113125 -184.79375 339.22625 -184.6875 338.3125 C-183.6690902 333.40561641 -182.17770048 330.78513365 -178 328 C-177.67 327.01 -177.34 326.02 -177 325 C-176.34 325 -175.68 325 -175 325 C-174.6596875 323.4221875 -174.6596875 323.4221875 -174.3125 321.8125 C-173.19958066 317.81244208 -170.99949814 315.84567773 -168 313 C-167.13880866 310.82653432 -167.13880866 310.82653432 -167 309 C-165.68 309 -164.36 309 -163 309 C-162.896875 308.401875 -162.79375 307.80375 -162.6875 307.1875 C-161.88651293 304.63890479 -160.88099125 303.85854506 -159 302 C-158.02645836 300.65672534 -157.06863713 299.30194828 -156.125 297.9375 C-153.65747635 294.56153481 -151.94724063 293.42539245 -148 292 C-146.89363605 289.60931266 -146.89363605 289.60931266 -146 287 C-145.37222656 286.401875 -144.74445313 285.80375 -144.09765625 285.1875 C-141.08196298 282.04264296 -139.93263423 278.46535519 -138.34375 274.4609375 C-136.81938002 271.66921341 -135.92522858 271.0800844 -133 270 C-128.98352345 268.15911492 -125.67117107 266.59580721 -123 263 C-122.66551741 259.832168 -122.66551741 259.832168 -123 257 C-121.783125 256.566875 -120.56625 256.13375 -119.3125 255.6875 C-115.95399109 254.43920465 -113.05226406 252.88522192 -110 251 C-109.34 251 -108.68 251 -108 251 C-107.67 250.01 -107.34 249.02 -107 248 C-105 245 -105 245 -103 244.0625 C-100.8602535 243.17368677 -100.8602535 243.17368677 -100.0625 241.125 C-99 239 -99 239 -96.625 237.125 C-92.22135776 233.56014676 -89.66611716 229.66199587 -89 224 C-87.948125 223.79375 -86.89625 223.5875 -85.8125 223.375 C-81.34920744 222.1462393 -79.74121642 219.60274158 -77 216 C-76.34 216 -75.68 216 -75 216 C-74.67 215.01 -74.34 214.02 -74 213 C-73.34 213 -72.68 213 -72 213 C-71.95875 212.0925 -71.9175 211.185 -71.875 210.25 C-70.70754311 205.91373155 -68.69966257 205.36778405 -65 203 C-64.505 202.01 -64.01 201.02 -63.5 200 C-61.64115005 196.2823001 -59.41341845 195.2756123 -56 193 C-54.95377125 191.02379014 -53.94560065 189.0262871 -53 187 C-52.01 186.67 -51.02 186.34 -50 186 C-48.38092444 183.55419827 -48.38092444 183.55419827 -46.9375 180.625 C-44.82892443 176.55807815 -42.54195782 172.81293672 -40 169 C-39.01 169 -38.02 169 -37 169 C-36.76410156 168.31421875 -36.52820313 167.6284375 -36.28515625 166.921875 C-34.73387084 163.39494039 -32.65975861 160.37450263 -30.4375 157.25 C-29.8197168 156.36634766 -29.8197168 156.36634766 -29.18945312 155.46484375 C-26.18071308 151.18071308 -26.18071308 151.18071308 -25 150 C-24.76924918 148.65252916 -24.58846937 147.29622435 -24.4375 145.9375 C-24.293125 144.638125 -24.14875 143.33875 -24 142 C-22.9171875 141.7834375 -22.9171875 141.7834375 -21.8125 141.5625 C-15.47068225 138.03926792 -13.24002627 129.45711894 -10.796875 122.96875 C-10 121 -10 121 -9 120 C-8.896875 118.948125 -8.79375 117.89625 -8.6875 116.8125 C-7.91938268 112.5529403 -6.47785341 110.49814599 -4 107 C-2.10976959 103.00951359 -0.68810523 99.35799977 0 95 C0.57693206 91.53840765 1.00086485 89.99870273 3 87 C4.44681324 84.10637351 4.43242376 81.1916991 4.71875 77.99609375 C5 76 5 76 6 75 C6.07620918 72.62170209 6.09077402 70.27224275 6.0625 67.89453125 C6.05871338 67.17770676 6.05492676 66.46088226 6.05102539 65.72233582 C6.03465829 62.64709549 6.00672608 59.57198653 5.97949219 56.49682617 C5.96130583 54.25440088 5.94926729 52.011998 5.9375 49.76953125 C5.92505249 48.73793633 5.92505249 48.73793633 5.91235352 47.6855011 C5.89221204 43.67940422 6.22462568 39.92991146 7 36 C6.34 36 5.68 36 5 36 C4.86722656 35.18015625 4.73445313 34.3603125 4.59765625 33.515625 C4.42105469 32.43796875 4.24445313 31.3603125 4.0625 30.25 C3.88847656 29.18265625 3.71445312 28.1153125 3.53515625 27.015625 C2.93995779 23.46346035 2.93995779 23.46346035 2 20 C1.34 19.67 0.68 19.34 0 19 C0 18.01 0 17.02 0 16 C-0.66 16 -1.32 16 -2 16 C-4.37113483 11.03715966 -6.43174347 6.54050113 -7 1 C-3.375 -1.125 -3.375 -1.125 0 0 Z " fill="#000000" transform="translate(371,75)"/>
<path d="M0 0 C1.68976027 2.84591203 2.1328989 5.63382552 2.8125 8.875 C5.38842067 20.8629385 10.13197548 32.08338786 15.19458008 43.19384766 C15.97504528 44.94403909 16.70143475 46.71803471 17.42578125 48.4921875 C19.18875462 52.42059963 21.28985296 55.976901 23.5625 59.625 C27.73845358 66.34430495 27.73845358 66.34430495 29.1171875 69.80078125 C29.94571876 72.28122999 29.94571876 72.28122999 32.5625 74.5625 C35.06608066 77.06608066 35.24829576 77.77841041 36 81 C36.61875 81.45375 37.2375 81.9075 37.875 82.375 C40.64322395 84.49187714 41.60212927 86.85479086 43 90 C43.66 90 44.32 90 45 90 C45.33 90.66 45.66 91.32 46 92 C48.52733235 92.65555119 48.52733235 92.65555119 51 93 C50.505 94.485 50.505 94.485 50 96 C50.66 96.66 51.32 97.32 52 98 C52.37125 98.928125 52.37125 98.928125 52.75 99.875 C54.89682159 103.5245967 58.53897567 105.26948784 62.25 107.125 C64 108 64 108 66 110 C66 110.99 66 111.98 66 113 C67.485 113.495 67.485 113.495 69 114 C72 117.44444444 72 117.44444444 72 120 C72.598125 120.103125 73.19625 120.20625 73.8125 120.3125 C76.37134605 121.11670876 77.23289843 122.01201073 79 124 C81.06124791 126.19866443 82.83306198 127.90154937 85.4375 129.4375 C88 131 88 131 90.3125 133.375 C93.10311253 136.10071456 95.84023828 137.81802842 99.23046875 139.69140625 C101.32285066 141.2387527 101.87170943 142.69276092 103 145 C106.0334467 146.76727858 106.0334467 146.76727858 109 148 C109 148.99 109 149.98 109 151 C109.7425 151.28875 110.485 151.5775 111.25 151.875 C117.66666667 154.5 117.66666667 154.5 120 158 C120.99 158.33 121.98 158.66 123 159 C123.433125 159.78375 123.86625 160.5675 124.3125 161.375 C126.44553513 164.69305465 128.46912762 165.3024652 132 167 C135.61870257 169.53827195 138.54161386 171.59428251 139.9375 175.875 C139.9684375 176.926875 139.9684375 176.926875 140 178 C140.969375 178.268125 141.93875 178.53625 142.9375 178.8125 C143.948125 179.204375 144.95875 179.59625 146 180 C146.33 180.99 146.66 181.98 147 183 C148.3153341 183.70151152 149.65117592 184.36525925 151 185 C151.433125 185.495 151.86625 185.99 152.3125 186.5 C154.85896287 188.76352255 157.74445256 189.2014695 161 190 C160.34 190.33 159.68 190.66 159 191 C159 191.66 159 192.32 159 193 C160.32 193 161.64 193 163 193 C163.33 194.32 163.66 195.64 164 197 C164.66 197 165.32 197 166 197 C166.66 197.99 167.32 198.98 168 200 C168.99 200.33 169.98 200.66 171 201 C171.66 201.99 172.32 202.98 173 204 C174.1446875 204.37125 174.1446875 204.37125 175.3125 204.75 C179.13606257 206.5284012 180.91914435 209.40652236 183 213 C183.33 213.99 183.66 214.98 184 216 C187.23052473 218.94336697 190.07396369 221.10467213 194 223 C195.89560608 224.54456792 196.85928123 225.41702222 197.4375 227.8125 C198.47604359 231.85128063 201.08774162 235.08774162 204 238 C204.2475 238.928125 204.495 239.85625 204.75 240.8125 C205.75826051 244.22808352 205.75826051 244.22808352 208.9375 246.125 C214.88404423 250.57765629 214.89008468 260.16740205 216 267 C216.99 267.33 217.98 267.66 219 268 C219.33 269.98 219.66 271.96 220 274 C220.66 274 221.32 274 222 274 C222 279.28 222 284.56 222 290 C222.99 290.33 223.98 290.66 225 291 C225.02905924 294.7499837 225.04681874 298.49993837 225.0625 302.25 C225.07087891 303.31347656 225.07925781 304.37695312 225.08789062 305.47265625 C225.09272461 307.00986328 225.09272461 307.00986328 225.09765625 308.578125 C225.10551147 309.99206543 225.10551147 309.99206543 225.11352539 311.43457031 C225.00916155 313.7929686 224.66243676 315.7448698 224 318 C223.84660156 318.6290625 223.69320313 319.258125 223.53515625 319.90625 C222.64056414 323.40626001 221.61789534 326.87163728 220.62109375 330.34375 C219.84821182 333.1945075 219.84821182 333.1945075 220 337 C219.34 337 218.68 337 218 337 C217.34 339.31 216.68 341.62 216 344 C215.34 344 214.68 344 214 344 C213.855625 344.763125 213.71125 345.52625 213.5625 346.3125 C213 349 213 349 212 352 C211.34 352 210.68 352 210 352 C210.33 352.99 210.66 353.98 211 355 C209.9609375 356.61328125 209.9609375 356.61328125 208.375 358.3125 C207.82328125 358.9209375 207.2715625 359.529375 206.703125 360.15625 C206.14109375 360.7646875 205.5790625 361.373125 205 362 C201.42330498 365.52778594 201.42330498 365.52778594 200 370 C199.21625 370.433125 198.4325 370.86625 197.625 371.3125 C194.49080693 373.3273384 194.15345755 374.53962734 193 378 C191.625 380.8125 191.625 380.8125 190 383 C188.68 383 187.36 383 186 383 C186 383.66 186 384.32 186 385 C185.01 385 184.02 385 183 385 C183 385.66 183 386.32 183 387 C181.20963542 387.94401042 179.41927083 388.88802083 177.62890625 389.83203125 C175.67732013 390.99019799 175.67732013 390.99019799 175 394 C174.01 394 173.02 394 172 394 C171.67 395.32 171.34 396.64 171 398 C168.69 398.66 166.38 399.32 164 400 C164 400.66 164 401.32 164 402 C163.05125 402.268125 162.1025 402.53625 161.125 402.8125 C157.74732727 403.74986588 157.74732727 403.74986588 156 407 C154.16015625 408.09765625 154.16015625 408.09765625 152.0625 409.0625 C149.50508127 410.25277526 147.3700592 411.41996053 145 413 C143.948125 413.4640625 143.948125 413.4640625 142.875 413.9375 C140.65504271 414.91908645 140.65504271 414.91908645 140 418 C138.54257537 418.08096803 137.08387193 418.13917774 135.625 418.1875 C134.81289063 418.22230469 134.00078125 418.25710938 133.1640625 418.29296875 C132.44992187 418.19628906 131.73578125 418.09960938 131 418 C130.01 416.515 130.01 416.515 129 415 C129.61875 414.278125 130.2375 413.55625 130.875 412.8125 C134.52120918 407.98663491 135.25895849 403.89799249 135.65625 397.98828125 C136 396 136 396 138 394 C138.16677282 390.41656024 138.16677282 390.41656024 138 387 C138.99 386.67 139.98 386.34 141 386 C141 382.04 141 378.08 141 374 C141.66 373.67 142.32 373.34 143 373 C143.02927632 369.47918442 143.04689119 365.95840061 143.0625 362.4375 C143.07087891 361.44685547 143.07925781 360.45621094 143.08789062 359.43554688 C143.20062776 349.37462288 143.20062776 349.37462288 140 340 C139.02186591 336.88219758 138.15232285 333.79233481 137.53515625 330.58203125 C137.37917969 329.77121094 137.22320312 328.96039062 137.0625 328.125 C136.92972656 327.36445312 136.79695312 326.60390625 136.66015625 325.8203125 C136.44230469 325.21960938 136.22445312 324.61890625 136 324 C135.01 323.67 134.02 323.34 133 323 C133.33 322.01 133.66 321.02 134 320 C133.01 319.67 132.02 319.34 131 319 C131 318.34 131 317.68 131 317 C130.401875 316.608125 129.80375 316.21625 129.1875 315.8125 C127 314 127 314 125.5625 310.375 C125.046875 309.26125 124.53125 308.1475 124 307 C121.42267086 305.94832473 121.42267086 305.94832473 119 306 C118.773125 304.9275 118.54625 303.855 118.3125 302.75 C116.85894155 298.59697585 115.70588473 297.25968581 112 295 C111.01 295 110.02 295 109 295 C107.625 292.9375 107.625 292.9375 106 290 C102.72162208 284.45104181 100.13647668 282.08408642 94 280 C93.34 279.67 92.68 279.34 92 279 C91.375 276.4375 91.375 276.4375 91 274 C90.278125 273.938125 89.55625 273.87625 88.8125 273.8125 C85.12811217 272.74812129 83.53894072 270.8134208 81 268 C79.15484079 265.88634838 79.15484079 265.88634838 76.75 265.125 C73.44246722 263.77191841 70.82295098 262.19562854 68 260 C67.32650839 258.33607955 66.6590841 256.66967972 66 255 C64.33927151 254.31867549 62.672233 253.65257873 61 253 C60.566875 252.236875 60.13375 251.47375 59.6875 250.6875 C57.58533488 247.33960741 55.26687292 246.15293533 51.83984375 244.30859375 C49.67920752 242.7718355 49.08221205 241.37891657 48 239 C46.67592331 238.31513275 45.34090759 237.65129797 44 237 C41.48717688 234.67563862 39.26449532 232.34658007 37.1875 229.625 C33.57023695 225.28428434 29.43005135 220.81001712 24 219 C24 218.34 24 217.68 24 217 C22.02 216.01 22.02 216.01 20 215 C20 214.01 20 213.02 20 212 C19.41089844 211.91234375 18.82179688 211.8246875 18.21484375 211.734375 C15.40488548 210.80267808 14.4199374 209.53211708 12.5625 207.25 C10.55775041 204.8477201 8.59164793 202.59164793 6.375 200.375 C4.54670137 198.54670137 2.93632582 196.74782652 1.3125 194.75 C-0.7042322 191.98257806 -0.7042322 191.98257806 -3 191 C-3 190.34 -3 189.68 -3 189 C-3.66 189 -4.32 189 -5 189 C-6.35386936 187.34997172 -7.68678142 185.6825613 -9 184 C-9.66 183.67 -10.32 183.34 -11 183 C-11 181.68 -11 180.36 -11 179 C-11.928125 178.62875 -11.928125 178.62875 -12.875 178.25 C-15.40358627 176.76259631 -15.71839004 175.56321991 -17 173 C-17.928125 172.566875 -17.928125 172.566875 -18.875 172.125 C-23.79379784 169.52093056 -26.2457468 162.81217248 -28.75390625 158.05078125 C-29.98491186 156.02483157 -31.32509204 154.65684965 -33 153 C-35.33188627 148.33622746 -36.47146841 144.17960957 -37 139 C-37.61875 138.95875 -38.2375 138.9175 -38.875 138.875 C-41 138 -41 138 -42.0625 135.5625 C-42.371875 134.386875 -42.68125 133.21125 -43 132 C-43.47563415 130.43642106 -43.9551222 128.87401164 -44.4375 127.3125 C-44.79968628 126.06605713 -44.79968628 126.06605713 -45.16918945 124.79443359 C-45.67392252 123.09676253 -46.20485432 121.4062101 -46.7824707 119.73193359 C-49.42378377 111.49493124 -49.56789094 103.37080475 -49.70849609 94.80151367 C-49.75009922 92.30654985 -49.81284498 89.81278407 -49.87890625 87.31835938 C-49.91529402 85.7083607 -49.95049155 84.09833458 -49.984375 82.48828125 C-50.0019989 81.7547493 -50.0196228 81.02121735 -50.03778076 80.26545715 C-50.1344405 73.72451878 -49.71178752 67.34012292 -47.5 61.125 C-47.2421875 60.38507813 -46.984375 59.64515625 -46.71875 58.8828125 C-46 57 -46 57 -45 55 C-44.34 55 -43.68 55 -43 55 C-42.814375 53.7315625 -42.814375 53.7315625 -42.625 52.4375 C-41.49865839 46.24262117 -39.88507541 41.4876666 -36.44140625 36.265625 C-33.71797409 31.98489153 -31.39205607 27.47174744 -29 23 C-28.34 23 -27.68 23 -27 23 C-26.731875 22.360625 -26.46375 21.72125 -26.1875 21.0625 C-25 19 -25 19 -22 18 C-21.29289322 16.35008418 -20.63437344 14.6792238 -20 13 C-19.319375 11.989375 -18.63875 10.97875 -17.9375 9.9375 C-16.29011983 7.4398591 -15.44544885 5.89541755 -15 3 C-14.01 3 -13.02 3 -12 3 C-12 2.34 -12 1.68 -12 1 C-3.9375 -1.6875 -3.9375 -1.6875 0 0 Z " fill="#000000" transform="translate(308,430)"/>
<path d="M0 0 C0.66 0.33 1.32 0.66 2 1 C2 2.32 2 3.64 2 5 C1.01 5 0.02 5 -1 5 C-0.67 3.35 -0.34 1.7 0 0 Z " fill="#000000" transform="translate(398,554)"/>
<path d="M0 0 C0.66 0.66 1.32 1.32 2 2 C1.34 2 0.68 2 0 2 C0 1.34 0 0.68 0 0 Z " fill="#000000" transform="translate(304,425)"/>
<path d="" fill="#000000" transform="translate(0,0)"/>
<path d="M0 0 C2 1 2 1 2 1 Z " fill="#000000" transform="translate(374,719)"/>
<path d="" fill="#000000" transform="translate(0,0)"/>
<path d="" fill="#000000" transform="translate(0,0)"/>
<path d="" fill="#000000" transform="translate(0,0)"/>
<path d="" fill="#000000" transform="translate(0,0)"/>
<path d="" fill="#000000" transform="translate(0,0)"/>
<path d="" fill="#000000" transform="translate(0,0)"/>
<path d="" fill="#000000" transform="translate(0,0)"/>
<path d="" fill="#000000" transform="translate(0,0)"/>
<path d="" fill="#000000" transform="translate(0,0)"/>
<path d="" fill="#000000" transform="translate(0,0)"/>
</svg>
